<svg width="134" height="42" viewBox="0 0 134 42" fill="none" xmlns="http://www.w3.org/2000/svg">
<g clip-path="url(#clip0_339_869)">
<path d="M81.3341 21.1415L76.6314 10.1961H72.9274L79.5951 25.1483L76.3742 32.7283H79.9149L89.4191 10.1961H85.7796L81.3351 21.1415H81.3341ZM109.324 9.88022C106.94 9.88022 104.977 10.9845 103.881 12.7186C102.947 10.9495 101.143 9.88022 98.5673 9.88022C96.5045 9.88022 94.8613 10.6997 93.8333 12.0907V10.1952H90.4158V25.9628H93.8626V17.1998C93.8626 14.2953 95.5352 12.8129 97.7917 12.8129C100.112 12.8129 101.432 14.2642 101.432 16.568V25.9697H104.907V17.0724C104.907 14.2632 106.584 12.812 108.742 12.812C111.15 12.812 112.477 14.3594 112.477 16.7244V25.9687H115.988V16.5028C115.99 12.4659 113.704 9.87925 109.323 9.87925L109.324 9.88022ZM68.6501 4.61268L65.1651 6.47219V10.1952H62.4284V13.2241H65.1651V19.5298C65.1651 24.4513 66.647 25.9648 71.5424 25.9648H72.0588V22.7833C69.0971 22.7833 68.6433 22.341 68.6433 19.5026V13.2231H72.0588V10.1961H68.6501V4.61268ZM133.995 17.9862C133.995 13.2873 130.419 9.88215 125.684 9.88215C120.95 9.88215 117.344 13.5099 117.344 18.1475C117.344 22.6258 120.565 26.2856 125.653 26.2856C129.776 26.2856 132.515 24.1402 133.738 20.672H130.034C129.422 22.3099 127.908 23.3519 125.684 23.3519C122.852 23.3519 121.021 21.5838 120.629 19.1556H133.995V17.9862ZM120.856 16.3142C121.184 15.3014 121.833 14.4214 122.706 13.8063C123.585 13.186 124.641 12.8608 125.719 12.878C128.135 12.878 129.908 14.1087 130.487 16.3142H120.856ZM27.1864 3.76213C27.198 3.7492 27.2069 3.73407 27.2124 3.71765C27.218 3.70123 27.2201 3.68386 27.2187 3.66659C27.2174 3.64932 27.2125 3.63252 27.2044 3.61718C27.1963 3.60184 27.1851 3.58828 27.1716 3.57733C24.3205 1.28816 20.4541 0.200439 16.5426 0.200439C6.98267 0.200439 0 7.21185 0 16.1829C0 25.155 6.98266 32.1683 16.6307 32.1683C24.2197 32.1683 30.6459 28.042 32.072 19.728C32.1278 19.4051 32.1747 19.0758 32.2146 18.7414V18.7046L32.2442 18.4188C32.2442 18.3931 32.2442 18.3652 32.2516 18.3391C32.2627 18.2516 32.2701 18.1624 32.2775 18.0738V17.968C32.2849 17.8842 32.2923 17.7997 32.296 17.7163L32.3071 17.5911C32.3071 17.5113 32.3182 17.4309 32.3182 17.3501C32.3182 17.3015 32.3182 17.2527 32.3256 17.2024C32.3256 17.1256 32.3329 17.0547 32.3366 16.9738V15.266C32.3366 15.1627 32.3292 15.0599 32.3256 14.9548V14.8567C32.3256 14.741 32.3145 14.6263 32.3071 14.5117V14.4419C32.2997 14.3089 32.2886 14.1726 32.2775 14.0356V14.0246C32.2664 13.864 32.2516 13.702 32.2353 13.5395C32.2238 13.4246 32.1693 13.3182 32.0827 13.2412C31.9956 13.1634 31.8829 13.1202 31.7659 13.1196H16.9467C16.854 13.12 16.7635 13.1472 16.6861 13.198C16.6088 13.2488 16.5481 13.3209 16.5114 13.4054C16.4873 13.4614 16.4747 13.5216 16.4744 13.5825V18.7305C16.4754 18.815 16.5114 18.8958 16.5713 18.955C16.6328 19.0148 16.7152 19.0487 16.8012 19.0494H25.5278C24.8158 23.3235 21.7465 26.0628 16.633 26.0628C10.4964 26.0628 6.49398 21.707 6.49398 16.175C6.49398 12.627 8.14891 9.65447 10.9248 7.9223C10.9248 7.9223 11.0989 7.80585 11.4236 7.63574C12.3763 7.12056 13.4033 6.75114 14.4704 6.53927C16.8648 6.02407 20.4329 6.15917 24.0998 8.44059C24.1321 8.45923 24.168 8.47067 24.2052 8.47412C24.2423 8.47757 24.2798 8.47295 24.315 8.46057C24.3501 8.4482 24.3822 8.42838 24.4089 8.40247C24.4356 8.37656 24.4562 8.34519 24.4695 8.31054C24.8657 7.45999 25.9856 5.22038 27.1838 3.76327L27.1864 3.76213ZM60.4986 18.236L54.2583 17.4273C54.2282 17.4237 54.1978 17.4316 54.1733 17.4493C54.1491 17.4675 54.1329 17.4944 54.1282 17.5243C54.0807 17.842 54.0167 18.157 53.9363 18.4681C53.9303 18.49 53.9312 18.5132 53.9389 18.5345C53.9466 18.5559 53.9606 18.5744 53.9792 18.5875C53.9914 18.5961 54.005 18.6024 54.0195 18.6059L60.1072 20.1777C60.1369 20.1855 60.1685 20.1816 60.1952 20.1667C60.2087 20.1591 60.2205 20.149 60.2299 20.1368C60.2394 20.1246 60.2462 20.1106 60.25 20.0958C60.3987 19.5262 60.5141 18.9478 60.5992 18.3655C60.6016 18.3504 60.6008 18.3348 60.597 18.32C60.5932 18.3051 60.5863 18.2911 60.5769 18.2789C60.5675 18.2667 60.5557 18.2566 60.5422 18.249C60.5287 18.2415 60.5139 18.2368 60.4985 18.2351L60.4986 18.236ZM53.6138 12.7701C53.6733 12.9255 53.7291 13.0843 53.7801 13.2416C53.7998 13.2982 53.8407 13.3451 53.8942 13.3726C53.9477 13.4001 54.0099 13.406 54.0677 13.3893L59.8904 11.7484C59.9362 11.736 59.9771 11.71 60.0076 11.6739C60.0382 11.6378 60.057 11.5933 60.0615 11.5464C60.064 11.5151 60.06 11.4838 60.0497 11.4542C59.938 11.0945 59.8127 10.7391 59.6741 10.3888C59.6629 10.3607 59.6463 10.3351 59.6252 10.3134C59.604 10.2917 59.5788 10.2744 59.5509 10.2624C59.4942 10.2382 59.4303 10.2369 59.3727 10.2589L53.7506 12.4693C53.7213 12.4802 53.6945 12.4967 53.6717 12.5179C53.6488 12.5391 53.6304 12.5645 53.6175 12.5928C53.6048 12.6208 53.598 12.6511 53.5973 12.6819C53.5967 12.7126 53.6023 12.7431 53.6138 12.7717L53.6138 12.7701ZM54.0559 14.3099C54.0998 14.5332 54.1361 14.7521 54.1645 14.9835C54.1719 15.032 54.1941 15.0779 54.2359 15.1099C54.2758 15.1409 54.3263 15.1552 54.3767 15.15L60.484 14.5609C60.5351 14.5558 60.5821 14.531 60.6151 14.4918C60.6313 14.4725 60.6435 14.4502 60.6509 14.4262C60.6583 14.4021 60.6607 14.3768 60.6581 14.3518C60.6055 13.891 60.532 13.4327 60.438 12.9783C60.433 12.9535 60.4229 12.9299 60.4084 12.909C60.394 12.8881 60.3755 12.8703 60.3539 12.8567C60.3103 12.8292 60.2576 12.82 60.2072 12.831L54.2065 14.0888C54.157 14.0993 54.1135 14.1286 54.0853 14.1704C54.0712 14.1908 54.0614 14.2138 54.0563 14.238C54.0512 14.2622 54.051 14.2872 54.0557 14.3115L54.0559 14.3099ZM54.2289 15.8457C54.2363 16.1297 54.2318 16.4124 54.2141 16.6943C54.2118 16.715 54.2141 16.736 54.2206 16.7558C54.2272 16.7756 54.2379 16.7937 54.252 16.8091C54.2662 16.8245 54.2835 16.8366 54.3028 16.8449C54.322 16.8531 54.3428 16.8571 54.3638 16.8567L60.563 17.3174C60.6051 17.3201 60.6466 17.3061 60.6784 17.2785C60.6941 17.265 60.7069 17.2484 60.716 17.2299C60.7251 17.2113 60.7303 17.1911 60.7313 17.1705C60.7671 16.6308 60.7753 16.0896 60.7557 15.5491C60.7559 15.518 60.7462 15.4877 60.7279 15.4625C60.7096 15.4373 60.6837 15.4186 60.6539 15.4091C60.6341 15.4025 60.6131 15.4 60.5923 15.4017L54.3774 15.6982C54.3383 15.6982 54.2991 15.7166 54.2717 15.742C54.258 15.7556 54.2471 15.7718 54.2398 15.7897C54.2324 15.8075 54.2287 15.8264 54.2289 15.8457ZM59.9234 20.9383L53.8455 19.0622C53.8257 19.0572 53.8047 19.0599 53.7867 19.0696C53.7682 19.0788 53.7541 19.0949 53.7475 19.1144C53.6314 19.4683 53.4942 19.8149 53.3367 20.1526C53.3298 20.166 53.3272 20.1812 53.3292 20.1962C53.3312 20.2111 53.3377 20.2251 53.3478 20.2363C53.355 20.2442 53.3639 20.2504 53.3737 20.2547L59.1406 22.9084C59.1594 22.9167 59.1807 22.9174 59.2 22.9103C59.2194 22.9033 59.2352 22.889 59.2441 22.8706C59.5248 22.2749 59.7685 21.6626 59.9737 21.0372C59.9769 21.0277 59.9781 21.0176 59.9772 21.0076C59.9764 20.9975 59.9736 20.9878 59.9689 20.9788C59.9591 20.961 59.9426 20.9476 59.9229 20.9417L59.9234 20.9383ZM53.0532 10.9825C52.9889 11.0199 52.9419 11.0809 52.9225 11.1524C52.903 11.2238 52.9127 11.3001 52.9493 11.3645L53.0199 11.4898L53.0894 11.6162C53.1269 11.6805 53.1874 11.7283 53.2589 11.7501C53.3304 11.7719 53.4075 11.7661 53.4748 11.7338L58.8025 9.16755C58.8373 9.15092 58.8683 9.12756 58.8938 9.09885C58.9193 9.07015 58.9388 9.03667 58.9511 9.00038C58.9633 8.96426 58.968 8.92605 58.9648 8.88808C58.9616 8.85012 58.9507 8.81319 58.9327 8.77958C58.8056 8.53342 58.6702 8.29159 58.5267 8.05446C58.4845 7.98996 58.4192 7.94383 58.344 7.92541C58.2688 7.90699 58.1894 7.91766 58.1218 7.95527L53.0532 10.9825Z" fill="#2D2D3A"/>
<path d="M53.1716 20.5747C53.1625 20.5702 53.152 20.5691 53.1421 20.5717C53.1326 20.5749 53.1247 20.5815 53.1199 20.5901C52.1993 22.316 50.7765 23.7259 49.0373 24.6358C47.2879 25.5527 45.3036 25.9316 43.3369 25.7245C41.3728 25.5196 39.515 24.7367 38.0013 23.4761C36.4987 22.2253 35.4132 20.5509 34.8881 18.6742C34.3942 16.9785 34.3935 15.1785 34.8861 13.4824C35.3824 11.7806 36.3496 10.2515 37.6776 9.06929C38.6903 8.15144 39.8837 7.45238 41.1821 7.01632C42.484 6.5789 43.8651 6.41269 45.2364 6.52835C45.2456 6.52902 45.2548 6.52641 45.2622 6.521C45.2704 6.5147 45.2757 6.50546 45.277 6.49528L45.859 0.204164C45.8586 0.194519 45.8547 0.185359 45.8479 0.178451C45.8416 0.17035 45.8323 0.165064 45.822 0.163751C42.8973 -0.0927857 39.9568 0.432074 37.3047 1.68403C28.4539 5.86192 25.3181 16.7509 30.6438 24.8344C32.2078 27.199 34.3682 29.1147 36.9096 30.3907C39.4641 31.6752 42.3099 32.2801 45.1696 32.1462C48.0276 32.0144 50.8022 31.1479 53.2223 29.6315C55.6282 28.1251 57.5933 26.0165 58.9207 23.5173C58.9251 23.508 58.9256 23.4974 58.9221 23.4878C58.9187 23.4782 58.9115 23.4703 58.9023 23.4659L53.1716 20.5747Z" fill="#2D2D3A"/>
<path d="M51.2321 1.69939L48.5775 7.28675C48.564 7.31315 48.541 7.33355 48.5131 7.34395C48.4852 7.35436 48.4543 7.354 48.4267 7.34295C48.1277 7.21221 47.8225 7.0961 47.5122 6.99503C47.4972 6.99043 47.4834 6.9829 47.4714 6.97286C47.4595 6.96283 47.4497 6.95049 47.4427 6.93661C47.4353 6.92304 47.4308 6.90811 47.4296 6.89275C47.4283 6.87738 47.4302 6.86192 47.4353 6.84734L49.3504 0.975158C49.3549 0.960261 49.3624 0.946457 49.3726 0.934576C49.3827 0.922696 49.3951 0.913003 49.4092 0.906098C49.4232 0.898805 49.4386 0.894397 49.4544 0.893134C49.4702 0.891872 49.4861 0.893772 49.5012 0.898741C50.0705 1.08648 50.628 1.30505 51.1738 1.55197C51.2008 1.5643 51.222 1.58662 51.2327 1.61419C51.2435 1.64176 51.243 1.67242 51.2314 1.69966L51.2321 1.69939ZM52.2503 10.3225C52.1475 10.1897 52.0419 10.0591 51.9335 9.93074C51.8944 9.88502 51.8752 9.82576 51.88 9.76597C51.8849 9.70619 51.9134 9.65077 51.9593 9.61185L56.4919 5.67795C56.5392 5.63693 56.601 5.61622 56.6637 5.62035C56.7264 5.62448 56.7849 5.65311 56.8264 5.69999C57.073 5.98472 57.3116 6.27933 57.5424 6.58456C57.5609 6.60898 57.5742 6.63684 57.5816 6.66647C57.5891 6.69611 57.5905 6.72692 57.5857 6.7571C57.581 6.78728 57.5702 6.81621 57.554 6.84216C57.5378 6.86812 57.5165 6.89059 57.4914 6.90823L52.5666 10.3648C52.5182 10.3976 52.4592 10.4113 52.4012 10.4032C52.3432 10.3951 52.2903 10.3658 52.2528 10.3211L52.2503 10.3225ZM51.1528 9.1288C50.9854 8.97136 50.8115 8.82087 50.6315 8.67775C50.5924 8.64634 50.5673 8.60085 50.5618 8.55118C50.5563 8.5015 50.5707 8.45166 50.602 8.4125L54.3931 3.6854C54.409 3.66533 54.4288 3.64863 54.4514 3.63626C54.4739 3.6239 54.4987 3.61612 54.5243 3.61339C54.5759 3.60703 54.6279 3.62101 54.6692 3.65234C55.0359 3.94773 55.391 4.25502 55.7324 4.57289C55.7597 4.5995 55.7784 4.63363 55.786 4.67088C55.7937 4.70814 55.7899 4.7468 55.7753 4.78192C55.7653 4.80525 55.7507 4.82637 55.7324 4.84402L51.4239 9.12396C51.3877 9.15845 51.3397 9.17801 51.2896 9.17866C51.2395 9.17931 51.191 9.16103 51.154 9.12749L51.1528 9.1288ZM49.9204 8.16061C49.6816 8.00198 49.4355 7.85439 49.183 7.71834C49.1644 7.70959 49.1479 7.69716 49.1344 7.6818C49.121 7.66645 49.1108 7.64849 49.1046 7.62907C49.0987 7.60965 49.097 7.58924 49.0996 7.56912C49.1021 7.549 49.1089 7.52964 49.1194 7.51226L52.0517 2.14162C52.0609 2.12333 52.0738 2.10715 52.0897 2.09412C52.1055 2.08109 52.124 2.07148 52.1438 2.06594C52.1637 2.06011 52.1847 2.05842 52.2054 2.06094C52.226 2.06347 52.2459 2.07017 52.2639 2.08064C52.75 2.34001 53.2224 2.62497 53.6783 2.93215C53.6958 2.94311 53.7109 2.95759 53.7226 2.97467C53.7342 2.99174 53.7422 3.01105 53.7459 3.03134C53.7496 3.05173 53.7488 3.07266 53.7437 3.09274C53.7386 3.11282 53.7293 3.13159 53.7163 3.14781L50.1443 8.12373C50.1261 8.14962 50.1006 8.16948 50.0709 8.18075C50.0412 8.19202 50.0088 8.19417 49.9779 8.18692C49.9568 8.18238 49.9368 8.17364 49.9192 8.16121L49.9204 8.16061ZM48.5961 0.722466L46.9411 6.74922C46.9387 6.75932 46.9341 6.76878 46.9278 6.77701C46.9214 6.78524 46.9134 6.79204 46.9042 6.79697C46.8952 6.80203 46.8853 6.80528 46.8751 6.80654C46.8649 6.8078 46.8546 6.80706 46.8446 6.80433C46.4779 6.71102 46.1052 6.639 45.7296 6.58646C45.7094 6.58365 45.6911 6.5731 45.6786 6.55706C45.6655 6.54205 45.6589 6.52252 45.6601 6.50269L46.4719 0.313607C46.4731 0.3035 46.4764 0.293735 46.4815 0.284899C46.4865 0.276062 46.4934 0.268327 46.5015 0.262165C46.5098 0.255954 46.5193 0.251464 46.5294 0.24894C46.5395 0.246417 46.55 0.245908 46.5603 0.247466C47.2234 0.334903 47.8817 0.463137 48.5302 0.629491C48.5455 0.632513 48.5596 0.640033 48.5706 0.651103C48.5816 0.662172 48.5891 0.676277 48.5919 0.691577C48.5935 0.701342 48.5932 0.711338 48.5909 0.720976L48.5961 0.722466ZM125.131 28.5183V41.6906H126.307V38.8328L128.661 36.427L132.592 41.6936H134L129.525 35.7271L133.81 31.4063H132.273L126.307 37.4768V28.5183H125.131ZM115.302 31.4063H114.146V41.6945H115.323V35.9477C115.323 33.8491 116.94 32.2637 119.061 32.2637C121.351 32.2637 122.653 33.7237 122.653 35.9254V41.6858H123.856V35.9341C123.856 32.9869 122.028 31.2032 119.215 31.2032C117.429 31.2032 116.022 32.0877 115.304 33.3417L115.302 31.4073L115.302 31.4063ZM103.058 36.5524C103.058 34.1854 104.947 32.2782 107.321 32.2782C107.887 32.2746 108.448 32.3827 108.972 32.5962C109.496 32.8096 109.971 33.1243 110.372 33.5218C110.772 33.9194 111.089 34.392 111.305 34.9122C111.52 35.4324 111.629 35.9899 111.626 36.5524C111.629 37.1148 111.52 37.6721 111.304 38.1922C111.089 38.7123 110.772 39.1848 110.371 39.5823C109.971 39.9797 109.495 40.2943 108.972 40.5077C108.448 40.7211 107.887 40.8291 107.321 40.8255C104.947 40.8255 103.058 38.9106 103.058 36.5524ZM101.855 36.5524C101.855 39.4996 104.186 41.8996 107.253 41.8996C108.849 41.8996 110.633 41.0569 111.495 39.555V41.6945H112.691V31.4063H111.495V33.5468C110.633 32.0449 108.849 31.2022 107.253 31.2022C104.164 31.2022 101.855 33.608 101.855 36.5514V36.5524ZM91.5631 36.5524C91.5568 35.9918 91.6643 35.4358 91.879 34.9174C92.0942 34.3983 92.4121 33.9269 92.8151 33.5293C93.2189 33.131 93.6978 32.8158 94.2245 32.602C94.7532 32.387 95.319 32.277 95.8902 32.2783C98.2631 32.2783 100.131 34.1942 100.131 36.5524C100.131 38.9096 98.2631 40.8255 95.8902 40.8255C93.4323 40.8255 91.5631 38.9106 91.5631 36.5524ZM90.54 28.5193V41.6916H91.6961V39.555C92.5569 41.0559 94.3184 41.8987 95.9391 41.8987C96.6541 41.9009 97.3625 41.7638 98.0244 41.4953C98.6838 41.2276 99.2834 40.8332 99.7889 40.3346C100.292 39.8385 100.69 39.2476 100.96 38.5966C101.228 37.9481 101.363 37.2526 101.355 36.5514C101.355 33.6041 99.0436 31.2022 95.9391 31.2022C94.3419 31.2022 92.5774 32.0449 91.7157 33.5254V28.5193H90.54Z" fill="#2D2D3A"/>
</g>
<defs>
<clipPath id="clip0_339_869">
<rect width="134" height="42" fill="white"/>
</clipPath>
</defs>
</svg>
